<svg xmlns="http://www.w3.org/2000/svg" width="48" height="46" viewBox="0 0 48 46" fill="none">
    <path
            d="M28.3615 6.82814C27.9564 7.23432 27.9564 7.84359 28.3615 8.14822C28.7665 8.55441 29.3741 8.5544 29.6779 8.14822C30.083 7.74204 30.083 7.13277 29.6779 6.82814C29.2729 6.42196 28.6653 6.42196 28.3615 6.82814Z"
            fill="#FEFEFE"/>
    <path
            d="M46.5821 11.5763L42.5315 11.5763L41.5188 12.7948C41.3163 12.9979 41.4176 13.0994 41.6201 13.201L42.9366 13.8102L46.6834 12.084C46.9872 11.9824 46.8859 11.5763 46.5821 11.5763ZM31.4935 31.4791L26.5315 31.4791C25.215 32.2914 24.81 32.4945 23.0884 33.2053C22.9872 33.2053 22.8859 33.4084 22.9872 33.51L27.4429 46H29.9745L25.9239 34.5254C28.5568 34.5254 34.9366 33.8146 38.3796 28.2296C37.2657 29.8543 34.734 31.4791 31.4935 31.4791ZM38.5821 13.5056C38.1771 13.9118 37.5695 13.9118 37.2657 13.5056C36.8606 13.0994 36.8606 12.4902 37.2657 12.1855C37.6707 11.7793 38.2783 11.7793 38.5821 12.1855C37.8406 11.3358 36.4555 11.3732 35.7467 12.1855C34.9344 13 34.9366 14.2164 35.7467 15.0288C36.5568 15.8411 37.772 15.8411 38.5821 15.0288C39.3922 14.2164 39.3922 12.9979 38.5821 12.1855C38.8859 12.5917 38.8859 13.0994 38.5821 13.5056ZM28.7593 36.2517L32.2024 46H34.734L31.0884 35.744C30.4809 35.947 29.6707 36.0486 28.7593 36.2517ZM32.2024 24.0663C32.5062 23.6601 32.7087 23.2539 33.0125 22.7462C32.9112 22.6447 32.81 22.7462 32.7087 22.8477C27.5441 28.3312 22.5821 29.042 18.734 29.042H12.8606C12.6581 29.042 12.5568 28.8389 12.6581 28.6358C17.215 22.34 22.1771 17.3643 25.9239 14.2164L16.1011 22.4416C15.291 23.0508 14.3796 23.457 13.1644 23.457L0.809967 23.457C0.506169 23.457 0.607435 23.7616 0.607435 23.9647C1.41756 26.6049 3.84794 29.042 7.89857 29.042L4.96186 31.9868C4.8606 32.0883 4.8606 32.393 5.1644 32.393H16.2024C24.1011 32.393 29.0631 28.9404 32.2024 24.0663Z"
            fill="#202020"/>
    <path
            d="M35.7467 15.0288C34.9366 14.2164 34.9366 12.9979 35.7467 12.1855C36.4874 11.3367 37.8733 11.3732 38.5821 12.1855C39.3922 12.9979 39.3922 14.2164 38.5821 15.0288C37.772 15.8411 36.5568 15.8411 35.7467 15.0288ZM38.2785 28.2295C41.7215 22.6445 42.9366 13.8102 42.9366 13.8102L41.6201 13.201C41.4176 13.0994 41.3142 13 41.5188 12.7948L42.5315 11.5763C41.9239 10.3577 39.6962 8.32669 36.4557 8.32669C34.5317 8.32669 32.8101 8.83441 31.2911 9.84986C31.2911 9.84986 29.0633 11.373 25.9241 14.1148C22.1772 17.3642 17.2152 22.2384 12.6582 28.5341C12.557 28.7372 12.6582 28.9403 12.8608 28.9403H18.7342C22.5823 28.9403 27.5443 28.2295 32.7089 22.7461C32.8101 22.6445 32.9114 22.6445 33.0127 22.6445C33.1139 22.7461 33.1139 22.8476 33.1139 22.9492C32.3038 24.9801 30.2785 28.9403 26.5316 31.3774H31.4937C34.8354 31.3774 37.2658 29.8542 38.2785 28.2295ZM33.2152 34.9315L37.0633 45.8983H48C45.7722 39.0948 43.3418 32.799 41.0127 27.011C39.1899 30.9712 37.4684 32.9006 33.2152 34.9315ZM0 45.9999L11.038 45.9999L14.7848 34.3222L4.05064 34.3222C2.73418 37.7747 1.41772 41.6334 0 45.9999ZM14.8861 20.9183L20.4557 16.3487C21.6709 13.0993 22.8861 9.84986 24.1013 7.10815C24.7089 8.52978 25.3165 10.053 25.9241 11.5761C28.962 9.0375 30.8861 7.51433 33.4177 6.80352C31.8987 3.45253 30.7848 1.01545 30.2785 2.16607e-06L17.9241 0C16.9114 2.23399 12.962 10.4591 8.3038 21.5275H12.7595C13.6709 21.5275 14.3798 21.426 14.8861 20.9183Z"
            fill="#202020"/>
</svg>