<svg xmlns="http://www.w3.org/2000/svg" width="70" height="120" viewBox="0 0 70 120" fill="none">
    <rect width="70" height="120" rx="5" fill="#F5F5F5"/>
    <path d="M28.1535 70.44L28.0835 57.49H32.0735C34.9202 57.49 37.1602 56.72 38.7935 55.18C40.4735 53.5934 41.3135 51.5167 41.3135 48.95C41.3135 46.3367 40.4735 44.26 38.7935 42.72C37.1135 41.18 34.8502 40.41 32.0035 40.41H22.8335V33.9H31.9335C35.2468 33.9 38.1168 34.53 40.5435 35.79C42.9702 37.0034 44.8602 38.73 46.2135 40.97C47.5668 43.21 48.2435 45.87 48.2435 48.95C48.2435 51.6567 47.6602 54.0834 46.4935 56.23C45.3735 58.33 43.8102 60.01 41.8035 61.27C39.7968 62.53 37.4635 63.23 34.8035 63.37V70.44H28.1535ZM30.3235 85.35C29.0635 85.35 28.0135 84.9534 27.1735 84.16C26.3802 83.3667 25.9835 82.3167 25.9835 81.01C25.9835 79.75 26.3802 78.7234 27.1735 77.93C28.0135 77.1367 29.0635 76.74 30.3235 76.74H32.4235C33.8235 76.74 34.8968 77.1367 35.6435 77.93C36.4368 78.7234 36.8335 79.75 36.8335 81.01C36.8335 82.27 36.4135 83.32 35.5735 84.16C34.7802 84.9534 33.7302 85.35 32.4235 85.35H30.3235Z"
          fill="#202020"/>
</svg>