<svg xmlns="http://www.w3.org/2000/svg" width="120" height="70" viewBox="0 0 120 70" fill="none">
    <rect width="120" height="70" rx="5" fill="#F5F5F5"/>
    <path d="M53.1535 45.44L53.0835 32.49H57.0735C59.9202 32.49 62.1602 31.72 63.7935 30.18C65.4735 28.5933 66.3135 26.5167 66.3135 23.95C66.3135 21.3367 65.4735 19.26 63.7935 17.72C62.1135 16.18 59.8502 15.41 57.0035 15.41H47.8335V8.89999H56.9335C60.2468 8.89999 63.1168 9.52999 65.5435 10.79C67.9702 12.0033 69.8602 13.73 71.2135 15.97C72.5668 18.21 73.2435 20.87 73.2435 23.95C73.2435 26.6567 72.6602 29.0833 71.4935 31.23C70.3735 33.33 68.8102 35.01 66.8035 36.27C64.7968 37.53 62.4635 38.23 59.8035 38.37V45.44H53.1535ZM55.3235 60.35C54.0635 60.35 53.0135 59.9533 52.1735 59.16C51.3802 58.3667 50.9835 57.3167 50.9835 56.01C50.9835 54.75 51.3802 53.7233 52.1735 52.93C53.0135 52.1367 54.0635 51.74 55.3235 51.74H57.4235C58.8235 51.74 59.8968 52.1367 60.6435 52.93C61.4368 53.7233 61.8335 54.75 61.8335 56.01C61.8335 57.27 61.4135 58.32 60.5735 59.16C59.7802 59.9533 58.7302 60.35 57.4235 60.35H55.3235Z"
          fill="#202020"/>
</svg>