<svg xmlns="http://www.w3.org/2000/svg" width="85" height="85" viewBox="0 0 85 85" fill="none">
    <path fill-rule="evenodd" clip-rule="evenodd"
          d="M0.732233 0.732233C1.70854 -0.244078 3.29146 -0.244078 4.26777 0.732233L84.2678 80.7322C85.2441 81.7085 85.2441 83.2915 84.2678 84.2678C83.2915 85.2441 81.7085 85.2441 80.7322 84.2678L0.732233 4.26777C-0.244078 3.29146 -0.244078 1.70854 0.732233 0.732233Z"
          fill="#202020"/>
    <path fill-rule="evenodd" clip-rule="evenodd"
          d="M42.5 77.5C61.83 77.5 77.5 61.83 77.5 42.5C77.5 23.17 61.83 7.49999 42.5 7.49999C23.17 7.49999 7.5 23.17 7.5 42.5C7.5 61.83 23.17 77.5 42.5 77.5ZM42.5 82.5C64.5914 82.5 82.5 64.5914 82.5 42.5C82.5 20.4086 64.5914 2.49999 42.5 2.49999C20.4086 2.49999 2.5 20.4086 2.5 42.5C2.5 64.5914 20.4086 82.5 42.5 82.5Z"
          fill="#202020"/>
</svg>