<svg xmlns="http://www.w3.org/2000/svg" width="24" height="53" viewBox="0 0 24 53" fill="none">
    <path d="M0.320002 0L23.68 1.03613e-06V14.4497L19.36 14.4497L19.36 4.87067L0.320002 4.87067L0.320002 0Z"
          fill="#202020"/>
    <path
            d="M8.49902e-07 25.3473C9.17975e-07 23.767 0.288001 22.3816 0.864001 21.191C1.46133 20.0004 2.28267 19.0695 3.328 18.3985C4.39467 17.749 5.632 17.4243 7.04 17.4243V22.295C6.12267 22.295 5.408 22.5548 4.896 23.0743C4.40533 23.6155 4.16 24.3731 4.16 25.3473C4.16 26.3214 4.40533 27.0682 4.896 27.5878C5.408 28.129 6.12267 28.3996 7.04 28.3996H9.92V21.743H14.24L14.24 28.3996H16.96C17.8987 28.3996 18.6133 28.129 19.104 27.5878C19.5947 27.0682 19.84 26.3214 19.84 25.3473C19.84 24.3731 19.5947 23.6155 19.104 23.0743C18.6133 22.5548 17.8987 22.295 16.96 22.295V17.4243C18.3893 17.4243 19.6267 17.749 20.672 18.3985C21.7173 19.0695 22.528 20.0004 23.104 21.191C23.7013 22.3816 24 23.767 24 25.3473C24 26.9492 23.7013 28.3346 23.104 29.5036C22.528 30.6942 21.7173 31.6142 20.672 32.2636C19.6267 32.9347 18.3893 33.2702 16.96 33.2702H7.04C5.632 33.2702 4.39467 32.9347 3.328 32.2636C2.28267 31.6142 1.46133 30.6942 0.864001 29.5036C0.288001 28.3346 7.80896e-07 26.9492 8.49902e-07 25.3473Z"
            fill="#202020"/>
    <path
            d="M0 45.077C6.80732e-08 43.4968 0.288 42.1113 0.864 40.9207C1.46133 39.7301 2.28267 38.7993 3.328 38.1282C4.39467 37.4788 5.632 37.1541 7.04 37.1541L16.96 37.1541C18.3893 37.1541 19.6267 37.4788 20.672 38.1282C21.7173 38.7993 22.528 39.7301 23.104 40.9207C23.7013 42.1113 24 43.4968 24 45.077C24 46.679 23.7013 48.0644 23.104 49.2333C22.528 50.424 21.7173 51.344 20.672 51.9934C19.6267 52.6645 18.3893 53 16.96 53L16.96 48.1293C17.8987 48.1293 18.6133 47.8587 19.104 47.3176C19.5947 46.798 19.84 46.0512 19.84 45.077C19.84 44.1029 19.5947 43.3452 19.104 42.8041C18.6133 42.2845 17.8987 42.0248 16.96 42.0248H7.04C6.12267 42.0248 5.408 42.2845 4.896 42.8041C4.40533 43.3452 4.16 44.1029 4.16 45.077C4.16 46.0512 4.40533 46.798 4.896 47.3176C5.408 47.8587 6.12267 48.1293 7.04 48.1293L7.04 53C5.632 53 4.39467 52.6645 3.328 51.9934C2.28267 51.344 1.46133 50.424 0.864 49.2333C0.288 48.0644 -6.90057e-08 46.679 0 45.077Z"
            fill="#202020"/>
</svg>