<svg xmlns="http://www.w3.org/2000/svg" width="89" height="34" viewBox="0 0 89 34" fill="none">
    <path fill-rule="evenodd" clip-rule="evenodd" d="M1.90749 33.9978H3.74832V9.64716H1.90749V33.9978Z"
          fill="#202020"/>
    <path fill-rule="evenodd" clip-rule="evenodd"
          d="M29.7013 34H27.87V13.7031L28.0989 7.80505L24.0643 28.1113H22.2235L18.1889 7.80505L18.4178 13.7031V34H16.5864V2.49678H18.4178L21.7657 16.9892L23.1487 25.724L24.5221 16.9892L27.87 2.49678H29.7013V34Z"
          fill="#202020"/>
    <path fill-rule="evenodd" clip-rule="evenodd"
          d="M47.7766 17.2593L46.3936 6.6802L45.0201 17.2593L43.6943 26.3967H49.1024L47.7766 17.2593ZM50.1992 33.9986L49.3313 28.1099H43.4176L42.5879 33.9986H40.7089L45.4779 2.44856H47.3188L52.0877 33.9986H50.1992Z"
          fill="#202020"/>
    <path fill-rule="evenodd" clip-rule="evenodd"
          d="M70.4296 34H63.0853V2.49678H64.9262V32.2493H70.4296V34Z" fill="#202020"/>
    <path fill-rule="evenodd" clip-rule="evenodd" d="M89 34H81.6652V2.49678H83.4965V32.2493H89V34Z"
          fill="#202020"/>
    <path fill-rule="evenodd" clip-rule="evenodd"
          d="M5.66561 2.78053C5.66561 1.24516 4.39706 0 2.83281 0C1.26856 0 0 1.24516 0 2.78053C0 4.3159 1.26856 5.56105 2.83281 5.56105C4.39706 5.56105 5.66561 4.3159 5.66561 2.78053Z"
          fill="#202020"/>
</svg>