<svg xmlns="http://www.w3.org/2000/svg" width="86" height="83" viewBox="0 0 86 83" fill="none">
    <path fill-rule="evenodd" clip-rule="evenodd"
          d="M0 11.5C0 10.1193 1.11929 9 2.5 9H83.5C84.8807 9 86 10.1193 86 11.5C86 12.8807 84.8807 14 83.5 14H2.5C1.11929 14 0 12.8807 0 11.5Z"
          fill="#202020" />
    <path fill-rule="evenodd" clip-rule="evenodd"
          d="M0 71.5C0 70.1193 1.11929 69 2.5 69H83.5C84.8807 69 86 70.1193 86 71.5C86 72.8807 84.8807 74 83.5 74H2.5C1.11929 74 0 72.8807 0 71.5Z"
          fill="#202020" />
    <path fill-rule="evenodd" clip-rule="evenodd"
          d="M75.5 0C76.8807 0 78 1.11929 78 2.5V80.5C78 81.8807 76.8807 83 75.5 83C74.1193 83 73 81.8807 73 80.5V2.5C73 1.11929 74.1193 0 75.5 0Z"
          fill="#202020" />
    <path fill-rule="evenodd" clip-rule="evenodd"
          d="M10.5 0C11.8807 0 13 1.11929 13 2.5V80.5C13 81.8807 11.8807 83 10.5 83C9.11929 83 8 81.8807 8 80.5V2.5C8 1.11929 9.11929 0 10.5 0Z"
          fill="#202020" />
    <path fill-rule="evenodd" clip-rule="evenodd"
          d="M25.5 18C26.8807 18 28 19.1193 28 20.5V62.5C28 63.8807 26.8807 65 25.5 65C24.1193 65 23 63.8807 23 62.5V20.5C23 19.1193 24.1193 18 25.5 18Z"
          fill="#202020" />
    <path fill-rule="evenodd" clip-rule="evenodd"
          d="M42.5 18C43.8807 18 45 19.1193 45 20.5V62.5C45 63.8807 43.8807 65 42.5 65C41.1193 65 40 63.8807 40 62.5V20.5C40 19.1193 41.1193 18 42.5 18Z"
          fill="#202020" />
    <path fill-rule="evenodd" clip-rule="evenodd"
          d="M60.5 18C61.8807 18 63 19.1193 63 20.5V62.5C63 63.8807 61.8807 65 60.5 65C59.1193 65 58 63.8807 58 62.5V20.5C58 19.1193 59.1193 18 60.5 18Z"
          fill="#202020" />
  </svg>