<svg xmlns="http://www.w3.org/2000/svg" width="50" height="50" viewBox="0 0 50 50" fill="none">
    <path
            d="M48.8335 17.2634L0.773078 18.9258C0.257685 20.9079 0 22.954 0 25C0 25.7673 -1.57295e-05 26.4706 0.0644084 27.2379L49.3489 30.6905C49.7998 28.8363 49.9931 26.9182 49.9931 25C50.0575 22.3785 49.671 19.757 48.8335 17.2634Z"
            fill="#202020"/>
    <path
            d="M47.996 15.0895C46.5787 11.8287 44.4527 8.88748 41.8113 6.52175L3.47898 12.2123C2.64146 13.6189 1.93279 15.1535 1.35297 16.688L47.996 15.0895Z"
            fill="#202020"/>
    <path
            d="M45.3545 39.6419L9.92125 44.9489C14.2377 48.2097 19.5849 50 25.0609 50C33.1139 50 40.6516 46.1637 45.3545 39.6419Z"
            fill="#202020"/>
    <path
            d="M39.5565 4.60358C35.3045 1.59847 30.2794 0 25.0611 0C17.2657 0 9.9858 3.6445 5.21842 9.71867L39.5565 4.60358Z"
            fill="#202020"/>
    <path
            d="M0.450937 29.4757C1.35287 34.6547 3.92985 39.4501 7.73087 43.0946L46.9007 37.2762C47.6738 35.8696 48.3181 34.399 48.8335 32.9284L0.450937 29.4757Z"
            fill="#202020"/>
</svg>