<svg xmlns="http://www.w3.org/2000/svg" width="54" height="62" viewBox="0 0 54 62" fill="none">
    <path
            d="M50.255 54.279C51.6584 56.8019 50.7234 59.9704 48.1689 61.3557C45.6144 62.741 42.4056 61.8187 41.0022 59.2957L40.1066 57.6855C40.1066 57.661 40.1082 57.6363 40.1082 57.6117V36.5343C40.1082 36.3478 40.0987 36.1632 40.0829 35.9809L50.255 54.279ZM31.6579 30.0675L33.4808 26.7888C35.1128 23.8524 34.4836 20.2874 32.1688 18.0546H48.7129C51.6332 18.0546 54 20.3922 54 23.2755C54 26.1589 51.6332 28.4963 48.7129 28.4963H37.7098C37.3251 28.4963 36.9955 28.682 36.8 29.0085C36.6044 29.3351 36.5981 29.7102 36.7826 30.0429L37.5348 31.3971C36.4326 30.5633 35.0544 30.0675 33.5596 30.0675H31.6579Z"
            fill="#202020"/>
    <path
            d="M12.9994 59.2957C11.596 61.8187 8.38715 62.741 5.83111 61.3557C3.27665 59.9704 2.34159 56.8019 3.74496 54.279L17.2174 30.0429C17.4034 29.7102 17.3971 29.3351 17.2 29.0085C17.0045 28.682 16.6749 28.4963 16.2902 28.4963H5.28711C2.3684 28.4963 0 26.1589 0 23.2755C0 20.3922 2.3684 18.0546 5.28711 18.0546H27V18.063C27.8609 18.0626 28.7329 18.2696 29.5403 18.7073C32.0963 20.0925 33.0298 23.261 31.6264 25.7838L29.2454 30.0675H26.2021C22.9886 30.0675 19.8948 31.2651 17.5722 33.4636C15.2006 35.7079 13.8934 38.7374 13.8934 41.9863C13.8934 45.1713 15.1549 48.2057 17.4066 50.4784L15.1691 54.5033C14.7717 55.2173 14.5257 55.9737 14.4217 56.7359L12.9994 59.2957Z"
            fill="#202020"/>
    <path fill-rule="evenodd" clip-rule="evenodd"
          d="M27 0C31.2779 0 34.7454 3.42394 34.7454 7.64776C34.7454 11.8714 31.2779 15.2953 27 15.2953C22.7221 15.2953 19.2546 11.8714 19.2546 7.64776C19.2546 3.42394 22.7221 0 27 0Z"
          fill="#202020"/>
    <path fill-rule="evenodd" clip-rule="evenodd"
          d="M37.9936 36.5341C37.9936 34.1162 36.0084 32.1557 33.5596 32.1557H26.2021C23.438 32.1557 20.8961 33.2104 19.0355 34.971C17.1653 36.7408 16.008 39.1914 16.008 41.9861C16.008 45.158 17.5201 48.1164 20.073 50.0213L17.0234 55.508C15.8455 57.6236 16.6292 60.2807 18.7721 61.4423C20.915 62.6041 23.6067 61.8309 24.783 59.715L28.2946 53.5178C28.3939 53.3413 28.5942 53.2566 28.7929 53.3077C28.99 53.3587 29.124 53.5293 29.124 53.7312V57.6115C29.124 60.0295 31.1092 61.9897 33.5596 61.9897C36.0084 61.9897 37.9936 60.0295 37.9936 57.6115V36.5341ZM27 38.8911C28.7944 38.8911 30.2499 40.3273 30.2499 42.0988C30.2499 43.8705 28.7944 45.3065 27 45.3065C25.2056 45.3065 23.7518 43.8705 23.7518 42.0988C23.7518 40.3273 25.2056 38.8911 27 38.8911Z"
          fill="#202020"/>
</svg>