<svg xmlns="http://www.w3.org/2000/svg" width="106" height="48" viewBox="0 0 106 48" fill="none">
    <g clip-path="url(#clip0_141_819)">
      <path
        d="M19.3633 28.8001V14.4197H6.4573V0H33.9257L27.354 11.3069C29.6919 12.3592 31.7819 13.8583 33.5127 15.6947C35.1744 6.76506 43.0668 0 52.5531 0C59.9171 0 66.3205 4.07606 69.5951 10.0774C72.8689 4.07606 79.2727 0 86.6367 0C97.3307 0 106 8.59619 106 19.1999C106 29.8036 97.3307 38.3998 86.6367 38.3998C79.2727 38.3998 72.8689 34.3238 69.5951 28.3229C66.3205 34.3238 59.9171 38.3998 52.5531 38.3998C46.9691 38.3998 41.9378 36.0551 38.4037 32.3053C36.7421 41.2349 28.8501 48 19.3633 48C8.66934 48 0 39.4038 0 28.8001H19.3633Z"
        fill="#202020" />
    </g>
    <defs>
      <clipPath id="clip0_141_819">
        <rect width="106" height="48" fill="white" />
      </clipPath>
    </defs>
  </svg>