<svg xmlns="http://www.w3.org/2000/svg" width="75" height="25" viewBox="0 0 75 25" fill="none">
    <path d="M0 24.6667V0.333333H14.9541V4.83333H5.04071V24.6667H0Z" fill="#202020"/>
    <path
            d="M18.5031 24.6667V0.333333H26.8707C28.5957 0.333333 30.0967 0.655555 31.3737 1.3C32.6731 1.94444 33.67 2.84444 34.3645 4C35.0814 5.15556 35.4399 6.51111 35.4399 8.06667C35.4399 9.6 35.0814 10.9556 34.3645 12.1333C33.6476 13.2889 32.6507 14.1889 31.3737 14.8333C30.0967 15.4778 28.5957 15.8 26.8707 15.8H23.5438V24.6667H18.5031ZM23.5438 11.4667H26.8707C27.946 11.4667 28.7973 11.1444 29.4246 10.5C30.0743 9.85556 30.3992 9.04444 30.3992 8.06667C30.3992 7.08889 30.0743 6.27778 29.4246 5.63333C28.7973 4.98889 27.946 4.66667 26.8707 4.66667H23.5438V11.4667Z"
            fill="#202020"/>
    <path
            d="M46.3819 25C44.7465 25 43.3127 24.7 42.0805 24.1C40.8483 23.4778 39.885 22.6222 39.1905 21.5333C38.5184 20.4222 38.1823 19.1333 38.1823 17.6667H43.223C43.223 18.6222 43.4919 19.3667 44.0296 19.9C44.5896 20.4111 45.3737 20.6667 46.3819 20.6667C47.39 20.6667 48.1629 20.4111 48.7006 19.9C49.2607 19.3667 49.5407 18.6222 49.5407 17.6667V14.6667H42.6518V10.1667H49.5407V7.33333C49.5407 6.35556 49.2607 5.61111 48.7006 5.1C48.1629 4.58889 47.39 4.33333 46.3819 4.33333C45.3737 4.33333 44.5896 4.58889 44.0296 5.1C43.4919 5.61111 43.223 6.35556 43.223 7.33333H38.1823C38.1823 5.84444 38.5184 4.55556 39.1905 3.46667C39.885 2.37778 40.8483 1.53333 42.0805 0.933333C43.3127 0.311111 44.7465 0 46.3819 0C48.0397 0 49.4735 0.311111 50.6833 0.933333C51.9155 1.53333 52.8676 2.37778 53.5397 3.46667C54.2342 4.55556 54.5814 5.84444 54.5814 7.33333V17.6667C54.5814 19.1333 54.2342 20.4222 53.5397 21.5333C52.8676 22.6222 51.9155 23.4778 50.6833 24.1C49.4735 24.7 48.0397 25 46.3819 25Z"
            fill="#202020"/>
    <path
            d="M66.8004 25C65.165 25 63.7312 24.7 62.499 24.1C61.2669 23.4778 60.3035 22.6222 59.609 21.5333C58.9369 20.4222 58.6009 19.1333 58.6009 17.6667V7.33333C58.6009 5.84444 58.9369 4.55556 59.609 3.46667C60.3035 2.37778 61.2669 1.53333 62.499 0.933333C63.7312 0.311111 65.165 0 66.8004 0C68.4583 0 69.8921 0.311111 71.1019 0.933333C72.334 1.53333 73.2862 2.37778 73.9583 3.46667C74.6527 4.55556 75 5.84444 75 7.33333H69.9593C69.9593 6.35556 69.6793 5.61111 69.1192 5.1C68.5815 4.58889 67.8086 4.33333 66.8004 4.33333C65.7923 4.33333 65.0082 4.58889 64.4481 5.1C63.9104 5.61111 63.6416 6.35556 63.6416 7.33333V17.6667C63.6416 18.6222 63.9104 19.3667 64.4481 19.9C65.0082 20.4111 65.7923 20.6667 66.8004 20.6667C67.8086 20.6667 68.5815 20.4111 69.1192 19.9C69.6793 19.3667 69.9593 18.6222 69.9593 17.6667H75C75 19.1333 74.6527 20.4222 73.9583 21.5333C73.2862 22.6222 72.334 23.4778 71.1019 24.1C69.8921 24.7 68.4583 25 66.8004 25Z"
            fill="#202020"/>
</svg>